<?xml version="1.0" encoding="utf-8"?>
<svg version="1.1" id="Layer_1" xmlns="http://www.w3.org/2000/svg" xmlns:xlink="http://www.w3.org/1999/xlink" x="0px" y="0px"
	 viewBox="0 0 12 12" style="enable-background:new 0 0 12 12;" xml:space="preserve">
<style type="text/css">
	.st0{fill:#FFFFFF;}
	.st1{fill:#4285F4;}
</style>
<polygon class="st0" points="3.2,1.3 6.4,1.6 8,1.8 9.3,2.4 9.8,3.2 9.9,5.8 10,9.4 9.1,10.6 7.8,10.6 2.5,10.6 1.8,9.3 2,2 "/>
<path class="st1" d="M3.5,9h5V8h-5V9z"/>
<path class="st1" d="M8.5,7h-5V6h5V7z"/>
<path class="st1" d="M3.5,5h2V4h-2V5z"/>
<path class="st1" d="M3,1C2.2,1,1.5,1.7,1.5,2.5v7C1.5,10.3,2.2,11,3,11h6c0.8,0,1.5-0.7,1.5-1.5v-5C10.5,2.6,8.9,1,7,1H3z M3,2h3.5
	v2.5h3v5C9.5,9.8,9.3,10,9,10H3c-0.3,0-0.5-0.2-0.5-0.5v-7C2.5,2.2,2.7,2,3,2z M7.5,2.1C8.3,2.2,9,2.8,9.3,3.5H7.5V2.1z"/>
</svg>
